<svg width="189" height="146" viewBox="0 0 189 146" fill="none" xmlns="http://www.w3.org/2000/svg">
<path d="M86.9877 107.54C87.0082 112.67 85.9464 117.744 83.8751 122.414C81.8038 127.084 78.772 131.24 74.9874 134.597C66.8662 142.192 56.1932 146.273 45.2027 145.986C31.2503 145.986 20.234 141.009 12.1538 131.055C4.08203 121.158 -0.230579 108.606 0.00951054 95.7086C0.00951054 64.8307 8.27372 41.5943 24.8021 25.9995C41.3306 10.4047 59.627 1.77104 79.6915 0.0984108L79.6915 33.9691C69.5804 35.0727 60.0081 39.1952 52.1628 45.825C48.1253 48.9209 44.7993 52.8864 42.4191 57.4422C40.0389 61.9981 38.6623 67.0334 38.3865 72.1935C41.7188 70.53 45.3844 69.6876 49.0907 69.7337C61.0751 69.7337 70.3873 73.2184 77.0275 80.1877C80.3817 83.8371 82.9906 88.1365 84.701 92.8336C86.4114 97.5307 87.1889 102.531 86.9877 107.54ZM188.99 107.54C189.016 112.671 187.956 117.746 185.884 122.417C183.813 127.088 180.778 131.243 176.99 134.597C168.869 142.192 158.196 146.273 147.205 145.986C133.285 145.986 122.357 141.009 114.42 131.055C106.446 121.111 102.191 108.579 102.42 95.7086C102.42 64.8307 110.596 41.5943 126.949 25.9995C143.301 10.4047 161.574 1.73822 181.766 0V33.8707C171.677 35.017 162.138 39.1737 154.333 45.825C150.266 48.9025 146.91 52.8607 144.504 57.4181C142.098 61.9755 140.701 67.0202 140.413 72.1935C143.737 70.5294 147.395 69.6869 151.093 69.7337C163.062 69.7337 172.374 73.2184 179.03 80.1877C182.384 83.8359 184.992 88.1357 186.698 92.8335C188.405 97.5313 189.176 102.532 188.966 107.54H188.99Z" fill="#5D8EEF" fill-opacity="0.22"/>
</svg>
