<svg width="96" height="96" viewBox="0 0 96 96" fill="none" xmlns="http://www.w3.org/2000/svg">
<path fill-rule="evenodd" clip-rule="evenodd" d="M48 96C74.5097 96 96 74.5097 96 48C96 21.4903 74.5097 0 48 0C21.4903 0 0 21.4903 0 48C0 74.5097 21.4903 96 48 96Z" fill="#E5EEF9"/>
<path fill-rule="evenodd" clip-rule="evenodd" d="M48 96C74.5097 96 96 74.5097 96 48C96 21.4903 74.5097 0 48 0C21.4903 0 0 21.4903 0 48C0 74.5097 21.4903 96 48 96Z" fill="#E3EAF8"/>
<ellipse cx="47.6136" cy="47.8335" rx="16.6058" ry="17.4361" fill="#5D8EEF"/>
<path d="M46.1915 40.199H42.8496V37.293H52.7301V40.199H49.3881V57.6351H46.1915V40.199Z" fill="white"/>
<path fill-rule="evenodd" clip-rule="evenodd" d="M47.7178 78.4355C64.6827 78.4355 78.4355 64.6827 78.4355 47.7178C78.4355 30.7528 64.6827 17 47.7178 17C30.7528 17 17 30.7528 17 47.7178C17 64.6827 30.7528 78.4355 47.7178 78.4355ZM47.7186 69.9038C59.9711 69.9038 69.9037 59.9712 69.9037 47.7188C69.9037 35.4663 59.9711 25.5337 47.7186 25.5337C35.4661 25.5337 25.5335 35.4663 25.5335 47.7188C25.5335 59.9712 35.4661 69.9038 47.7186 69.9038ZM25.5075 50.7299H17.8544V49.8271H25.5075V50.7299ZM36.7409 28.0761L31.8706 21.4272L31.1423 21.9607L36.0126 28.6096L36.7409 28.0761ZM62.6879 31.2547L68.0897 25.8529L67.4513 25.2145L62.0495 30.6163L62.6879 31.2547ZM64.456 62.7262L70.908 67.7014L71.4592 66.9865L65.0073 62.0113L64.456 62.7262ZM55.3357 68.6854L58.3943 76.0498L59.228 75.7036L56.1694 68.3391L55.3357 68.6854ZM44.9082 69.8718L43.8579 77.9517L44.7532 78.0681L45.8034 69.9882L44.9082 69.8718Z" fill="#80A3EA"/>
<circle cx="69" cy="25" r="11" fill="#5D8EEF"/>
<path d="M64 26L66.5 29L74.5 21" stroke="white" stroke-width="1.5" stroke-linecap="round" stroke-linejoin="round"/>
</svg>
