<svg width="96" height="96" viewBox="0 0 96 96" fill="none" xmlns="http://www.w3.org/2000/svg">
<path fill-rule="evenodd" clip-rule="evenodd" d="M48 96C74.5097 96 96 74.5097 96 48C96 21.4903 74.5097 0 48 0C21.4903 0 0 21.4903 0 48C0 74.5097 21.4903 96 48 96Z" fill="#E5EEF9"/>
<path fill-rule="evenodd" clip-rule="evenodd" d="M48 96C74.5097 96 96 74.5097 96 48C96 21.4903 74.5097 0 48 0C21.4903 0 0 21.4903 0 48C0 74.5097 21.4903 96 48 96Z" fill="#E3EAF8"/>
<path d="M71.1383 31.5013V38.0383H25V31.5013C25 29.0155 27.0155 27 29.5013 27H66.637C69.1229 27 71.1383 29.0155 71.1383 31.5013Z" fill="#5D8EEF"/>
<path d="M45.3354 30.8823C46.277 30.8854 47.0375 31.6512 47.0344 32.5927C47.0313 33.5343 46.2656 34.2952 45.324 34.2922C44.3824 34.2891 43.6219 33.5233 43.625 32.5817C43.6285 31.6402 44.3938 30.8797 45.3354 30.8823Z" fill="#F4F9FD"/>
<path d="M71.1383 38.0381V63.019C71.1383 65.5053 69.1229 67.5203 66.637 67.5203H29.5013C27.0155 67.5203 25 65.5053 25 63.019V38.0381H71.1383Z" fill="#C8D8F7"/>
<path d="M37.6762 30.8584C38.6178 30.8615 39.3787 31.6272 39.3757 32.5688C39.3726 33.5104 38.6068 34.2713 37.6652 34.2682C36.7237 34.2652 35.9628 33.4994 35.9658 32.5578C35.9671 32.1055 36.1483 31.6721 36.4687 31.3534C36.7896 31.0347 37.2243 30.8567 37.6762 30.8584Z" fill="#F4F9FD"/>
<path d="M30.018 30.834C30.9601 30.8366 31.7214 31.6024 31.7183 32.5444C31.7157 33.4864 30.9499 34.2478 30.0079 34.2447C29.0659 34.2421 28.3045 33.4763 28.3076 32.5343C28.3085 32.082 28.4896 31.6485 28.8105 31.3294C29.1314 31.0107 29.5657 30.8322 30.018 30.834Z" fill="#F4F9FD"/>
<path d="M41.0371 56.8358C40.8503 56.8363 40.6692 56.7694 40.5267 56.6481L35.4303 52.3077C35.2544 52.1578 35.1533 51.9385 35.1533 51.7077C35.1533 51.4769 35.2544 51.2576 35.4303 51.1081L40.5267 46.7677C40.8582 46.4855 41.3554 46.5255 41.6371 46.8565C41.9193 47.1879 41.8798 47.6851 41.5483 47.9673L37.1565 51.7077L41.5488 55.4485C41.8002 55.6626 41.8912 56.0107 41.7774 56.3206C41.6631 56.6305 41.3681 56.8363 41.0375 56.8358H41.0371Z" fill="#5D8EEF" stroke="#5D8EEF"/>
<path d="M54.1012 56.8358C53.7706 56.8363 53.4757 56.6305 53.3614 56.3206C53.2475 56.0107 53.3385 55.6626 53.59 55.4485L57.9818 51.7077L53.5895 47.9673C53.2581 47.6851 53.2185 47.1879 53.5007 46.8565C53.7825 46.5255 54.2797 46.4855 54.6111 46.7677L59.7076 51.1081C59.8834 51.2576 59.9845 51.4769 59.9845 51.7077C59.9845 51.9385 59.8834 52.1578 59.7076 52.3077L54.6111 56.6481C54.4687 56.7694 54.288 56.8358 54.1012 56.8358V56.8358Z" fill="#5D8EEF" stroke="#5D8EEF"/>
<path d="M46.2653 60.0917C46.0274 60.0917 45.8028 59.9845 45.6529 59.8003C45.5035 59.6157 45.4446 59.3739 45.4933 59.1414L48.6702 44.0576C48.7599 43.6316 49.1775 43.3595 49.6034 43.4492C50.0289 43.5389 50.3015 43.9565 50.2118 44.3824L47.035 59.4662C46.9585 59.8302 46.6371 60.0913 46.2653 60.0917V60.0917Z" fill="#5D8EEF" stroke="#5D8EEF"/>
</svg>
