<svg width="96" height="96" viewBox="0 0 96 96" fill="none" xmlns="http://www.w3.org/2000/svg">
<path fill-rule="evenodd" clip-rule="evenodd" d="M48 96C74.5097 96 96 74.5097 96 48C96 21.4903 74.5097 0 48 0C21.4903 0 0 21.4903 0 48C0 74.5097 21.4903 96 48 96Z" fill="#E5EEF9"/>
<path d="M68.6088 57.0608C67.1574 60.9945 64.9623 64.4148 62.0838 67.2258C58.8073 70.4253 54.5168 72.9676 49.3315 74.7812C49.1614 74.8405 48.9838 74.8891 48.8054 74.925C48.5698 74.9715 48.33 74.9967 48.0923 75H48.0457C47.7924 75 47.5378 74.9744 47.2852 74.925C47.1068 74.8891 46.9317 74.8405 46.7624 74.7824C41.5709 72.9718 37.2751 70.4306 33.9953 67.2311C31.1155 64.4201 28.9209 61.0019 27.4715 57.0682C24.836 49.9161 24.986 42.0373 25.1067 35.7059L25.1087 35.6086C25.1331 35.0858 25.1487 34.5366 25.1574 33.9302C25.2014 30.9528 27.5687 28.4895 30.5466 28.3235C36.7552 27.977 41.5582 25.9521 45.662 21.9521L45.6978 21.9191C46.3792 21.2941 47.2378 20.9876 48.0923 21.0004C48.9163 21.0111 49.7369 21.3172 50.3941 21.9191L50.4291 21.9521C54.5337 25.9521 59.3367 27.977 65.5453 28.3235C68.5231 28.4895 70.8904 30.9528 70.9345 33.9302C70.9432 34.5408 70.9588 35.0891 70.9831 35.6086L70.9844 35.6498C71.1047 41.9932 71.2538 49.8877 68.6088 57.0608Z" fill="#80A3EA"/>
<path d="M68.6084 57.0609C67.1569 60.9946 64.9619 64.4149 62.0833 67.2259C58.8068 70.4254 54.5163 72.9677 49.3311 74.7813C49.1609 74.8406 48.9833 74.8893 48.8049 74.9251C48.5693 74.9716 48.3295 74.9968 48.0918 75.0001V21.0005C48.9158 21.0112 49.7365 21.3173 50.3936 21.9192L50.4286 21.9522C54.5332 25.9522 59.3362 27.9771 65.5448 28.3236C68.5227 28.4896 70.8899 30.9529 70.934 33.9303C70.9427 34.5409 70.9583 35.0892 70.9826 35.6087L70.9839 35.6499C71.1042 41.9933 71.2533 49.8878 68.6084 57.0609Z" fill="#5D8EEF"/>
<path d="M61.5033 48C61.5033 55.4046 55.4911 61.432 48.0927 61.4584H48.0453C40.625 61.4584 34.5869 55.4207 34.5869 48C34.5869 40.5797 40.625 34.542 48.0453 34.542H48.0927C55.4911 34.5684 61.5033 40.5957 61.5033 48Z" fill="white"/>
<path d="M61.5024 48C61.5024 55.4046 55.4903 61.432 48.0918 61.4584V34.542C55.4903 34.5684 61.5024 40.5957 61.5024 48Z" fill="#E3EAF8"/>
<path d="M54.1533 46.0622L48.0921 52.1242L46.7824 53.4339C46.473 53.7433 46.0672 53.8978 45.6618 53.8978C45.256 53.8978 44.8506 53.7433 44.5408 53.4339L41.7248 50.6167C41.106 49.9979 41.106 48.9956 41.7248 48.3764C42.3428 47.7575 43.3464 47.7575 43.9652 48.3764L45.6618 50.0729L51.9129 43.8218C52.5317 43.2026 53.5353 43.2026 54.1533 43.8218C54.7721 44.4406 54.7721 45.4442 54.1533 46.0622Z" fill="#2D6CEB"/>
<path d="M54.153 46.0622L48.0918 52.1242V47.6422L51.9126 43.8218C52.5314 43.2026 53.535 43.2026 54.153 43.8218C54.7718 44.4406 54.7718 45.4442 54.153 46.0622Z" fill="#234EA4"/>
</svg>
